<svg width="20px" height="20px" viewBox="0 0 20 20" version="1.1" xmlns="http://www.w3.org/2000/svg" xmlns:xlink="http://www.w3.org/1999/xlink">
    <g stroke="none" stroke-width="1" fill="none" fill-rule="evenodd">
        <g transform="translate(-410.000000, -1391.000000)" fill="#FFFFFF" fill-rule="nonzero">
            <g transform="translate(130.000000, 1165.000000)">
                <g transform="translate(157.625305, 214.000000)">
                    <g transform="translate(122.374695, 12.000000)">
                        <path d="M7.30434783,14.6153846 C7.30434783,11.6122011 9.12803804,9.04553303 11.6799565,8.0583194 C11.9896304,7.33275293 12.173913,6.52600753 12.173913,5.71906355 C12.173913,2.56051212 12.173913,0 8.52173913,0 C4.86956522,0 4.86956522,2.56051212 4.86956522,5.71906355 C4.86956522,7.68618311 5.96335326,9.65298495 7.30434783,10.441898 L7.30434783,11.4899958 C3.17469022,11.8424331 0,13.9607107 0,16.5217391 L7.55745109,16.5217391 C7.39264674,15.9154787 7.30434783,15.2760159 7.30434783,14.6153846 Z"></path>
                        <path d="M14.3478261,8.69565217 C11.2262168,8.69565217 8.69565217,11.2262168 8.69565217,14.3478261 C8.69565217,17.4694354 11.2262168,20 14.3478261,20 C17.4693961,20 20,17.4694354 20,14.3478261 C20,11.2262168 17.4694354,8.69565217 14.3478261,8.69565217 Z M17.4879227,14.9758454 L14.9758454,14.9758454 L14.9758454,17.4879227 L13.7198068,17.4879227 L13.7198068,14.9758454 L11.2077295,14.9758454 L11.2077295,13.7198068 L13.7198068,13.7198068 L13.7198068,11.2077295 L14.9758454,11.2077295 L14.9758454,13.7198068 L17.4879227,13.7198068 L17.4879227,14.9758454 Z"></path>
                    </g>
                </g>
            </g>
        </g>
    </g>
</svg>