<svg width="19px" height="19px" viewBox="0 0 19 19" version="1.1" xmlns="http://www.w3.org/2000/svg" xmlns:xlink="http://www.w3.org/1999/xlink">
    <g stroke="none" stroke-width="1" fill="none" fill-rule="evenodd">
        <g transform="translate(-174.000000, -441.000000)">
            <g transform="translate(130.000000, 159.000000)">
                <g transform="translate(44.000000, 282.000000)">
                    <circle fill="#004680" cx="9.5" cy="9.5" r="9.5"></circle>
                    <path d="M10.7498395,5.40628628 C10.7498395,6.18295675 10.120243,6.81257256 9.34359638,6.81257256 C8.56694973,6.81257256 7.93735323,6.18295675 7.93735323,5.40628628 C7.93735323,4.62961581 8.56694973,4 9.34359638,4 C10.120243,4 10.7498395,4.62961581 10.7498395,5.40628628 L10.7498395,5.40628628 Z" fill="#E8F4FD" fill-rule="nonzero"></path>
                    <path d="M10.8331538,12.8699933 C10.8245288,13.2112453 10.9845297,13.3074959 11.374032,13.3474961 L12.0000358,13.3599962 L12.0000358,14 L7.11588165,14 L7.11588165,13.3599962 L7.80376076,13.3474961 C8.21513821,13.334996 8.3140138,13.1749951 8.34463898,12.8699933 L8.34463898,9.01834529 C8.34901401,8.40846666 7.55763429,8.50421723 7.00000596,8.52234234 L7.00000596,7.88808855 L10.8331538,7.74996273" fill="#E8F4FD" fill-rule="nonzero"></path>
                </g>
            </g>
        </g>
    </g>
</svg>